<?xml version="1.0" encoding="UTF-8" standalone="no"?>
<!-- Created with Inkscape (http://www.inkscape.org/) -->

<svg
   xmlns:dc="http://purl.org/dc/elements/1.1/"
   xmlns:cc="http://creativecommons.org/ns#"
   xmlns:rdf="http://www.w3.org/1999/02/22-rdf-syntax-ns#"
   xmlns:svg="http://www.w3.org/2000/svg"
   xmlns="http://www.w3.org/2000/svg"
   xmlns:sodipodi="http://sodipodi.sourceforge.net/DTD/sodipodi-0.dtd"
   xmlns:inkscape="http://www.inkscape.org/namespaces/inkscape"
   id="svg2"
   version="1.1"
   inkscape:version="0.48.5 r10040"
   width="999.9"
   height="999.9"
   xml:space="preserve"
   sodipodi:docname="social_11.ai"><metadata
     id="metadata8"><rdf:RDF><cc:Work
         rdf:about=""><dc:format>image/svg+xml</dc:format><dc:type
           rdf:resource="http://purl.org/dc/dcmitype/StillImage" /><dc:title></dc:title></cc:Work></rdf:RDF></metadata><defs
     id="defs6"><clipPath
       clipPathUnits="userSpaceOnUse"
       id="clipPath26"><path
         d="m 0,799.92 799.92,0 L 799.92,0 0,0 0,799.92 z"
         id="path28" /></clipPath><clipPath
       clipPathUnits="userSpaceOnUse"
       id="clipPath230"><path
         d="m 474.612,676.759 59.407,0 0,-41.114 -59.407,0 0,41.114 z"
         id="path232" /></clipPath><clipPath
       clipPathUnits="userSpaceOnUse"
       id="clipPath350"><path
         d="m 386.666,433.613 59.407,0 0,-41.114 -59.407,0 0,41.114 z"
         id="path352" /></clipPath><clipPath
       clipPathUnits="userSpaceOnUse"
       id="clipPath370"><path
         d="m 625.896,91.2227 55.625,0 0,-41.3272 -55.625,0 0,41.3272 z"
         id="path372" /></clipPath><clipPath
       clipPathUnits="userSpaceOnUse"
       id="clipPath390"><path
         d="m 477.144,248.79 55.627,0 0,-41.327 -55.627,0 0,41.327 z"
         id="path392" /></clipPath><clipPath
       clipPathUnits="userSpaceOnUse"
       id="clipPath410"><path
         d="m 166.57,539.729 59.407,0 0,-41.114 -59.407,0 0,41.114 z"
         id="path412" /></clipPath><clipPath
       clipPathUnits="userSpaceOnUse"
       id="clipPath430"><path
         d="m 61.4062,640.154 59.4068,0 0,-41.114 -59.4068,0 0,41.114 z"
         id="path432" /></clipPath><clipPath
       clipPathUnits="userSpaceOnUse"
       id="clipPath450"><path
         d="m 175.994,375.205 55.627,0 0,-41.327 -55.627,0 0,41.327 z"
         id="path452" /></clipPath><clipPath
       clipPathUnits="userSpaceOnUse"
       id="clipPath470"><path
         d="m 720.148,543.546 55.627,0 0,-41.327 -55.627,0 0,41.327 z"
         id="path472" /></clipPath><clipPath
       clipPathUnits="userSpaceOnUse"
       id="clipPath490"><path
         d="m 244.7,636.993 38.743,0 0,-27.58 -38.743,0 0,27.58 z"
         id="path492" /></clipPath><clipPath
       clipPathUnits="userSpaceOnUse"
       id="clipPath510"><path
         d="m 245.5,260.686 39.611,0 0,-24.472 -39.611,0 0,24.472 z"
         id="path512" /></clipPath><clipPath
       clipPathUnits="userSpaceOnUse"
       id="clipPath530"><path
         d="m 361.417,715.685 38.743,0 0,-27.581 -38.743,0 0,27.581 z"
         id="path532" /></clipPath><clipPath
       clipPathUnits="userSpaceOnUse"
       id="clipPath550"><path
         d="m 37.9482,370.141 39.6114,0 0,-24.472 -39.6114,0 0,24.472 z"
         id="path552" /></clipPath><clipPath
       clipPathUnits="userSpaceOnUse"
       id="clipPath570"><path
         d="m 709.952,365.306 37.802,0 0,-27.196 -37.802,0 0,27.196 z"
         id="path572" /></clipPath><clipPath
       clipPathUnits="userSpaceOnUse"
       id="clipPath590"><path
         d="m 661.84,580.978 55.627,0 0,-41.328 -55.627,0 0,41.328 z"
         id="path592" /></clipPath><clipPath
       clipPathUnits="userSpaceOnUse"
       id="clipPath610"><path
         d="m 331.18,398.735 59.407,0 0,-41.114 -59.407,0 0,41.114 z"
         id="path612" /></clipPath><clipPath
       clipPathUnits="userSpaceOnUse"
       id="clipPath630"><path
         d="m 28.3516,684.41 39.6113,0 0,-24.472 -39.6113,0 0,24.472 z"
         id="path632" /></clipPath><clipPath
       clipPathUnits="userSpaceOnUse"
       id="clipPath650"><path
         d="m 530.747,677.016 55.627,0 0,-41.328 -55.627,0 0,41.328 z"
         id="path652" /></clipPath><clipPath
       clipPathUnits="userSpaceOnUse"
       id="clipPath666"><path
         d="m 138.486,206.212 55.627,0 0,-41.327 -55.627,0 0,41.327 z"
         id="path668" /></clipPath><clipPath
       clipPathUnits="userSpaceOnUse"
       id="clipPath686"><path
         d="m 25.6064,72.3818 39.6114,0 0,-24.4716 -39.6114,0 0,24.4716 z"
         id="path688" /></clipPath><clipPath
       clipPathUnits="userSpaceOnUse"
       id="clipPath706"><path
         d="m 426.58,135.064 39.611,0 0,-24.471 -39.611,0 0,24.471 z"
         id="path708" /></clipPath><clipPath
       clipPathUnits="userSpaceOnUse"
       id="clipPath726"><path
         d="m 516.779,548.481 38.839,0 0,-26.518 -38.839,0 0,26.518 z"
         id="path728" /></clipPath><clipPath
       clipPathUnits="userSpaceOnUse"
       id="clipPath746"><path
         d="m 397.232,157.722 38.744,0 0,-27.58 -38.744,0 0,27.58 z"
         id="path748" /></clipPath><clipPath
       clipPathUnits="userSpaceOnUse"
       id="clipPath766"><path
         d="m 78.9531,188.096 59.4069,0 0,-41.115 -59.4069,0 0,41.115 z"
         id="path768" /></clipPath></defs><sodipodi:namedview
     pagecolor="#ffffff"
     bordercolor="#666666"
     borderopacity="1"
     objecttolerance="10"
     gridtolerance="10"
     guidetolerance="10"
     inkscape:pageopacity="0"
     inkscape:pageshadow="2"
     inkscape:window-width="1358"
     inkscape:window-height="711"
     id="namedview4"
     showgrid="false"
     inkscape:zoom="0.33378777"
     inkscape:cx="612.14746"
     inkscape:cy="418.62667"
     inkscape:window-x="0"
     inkscape:window-y="0"
     inkscape:window-maximized="1"
     inkscape:current-layer="g10" /><g
     id="g10"
     inkscape:groupmode="layer"
     inkscape:label="social_11"
     transform="matrix(1.25,0,0,-1.25,0,999.9)"><path
       d="m 0,0 799.92,0 0,799.92 L 0,799.92 0,0 z"
       style="fill:#ffffff;fill-opacity:1;fill-rule:nonzero;stroke:none"
       id="path12" /><path
       d="m 0,0 799.92,0 0,799.92 L 0,799.92 0,0 z"
       style="fill:#ffffff;fill-opacity:1;fill-rule:nonzero;stroke:none"
       id="path14" /><path
       d="m 0,0 799.92,0 0,799.92 L 0,799.92 0,0 z"
       style="fill:#e4ddd7;fill-opacity:1;fill-rule:nonzero;stroke:none"
       id="path16" /><path
       inkscape:connector-curvature="0"
       id="path20"
       style="fill:#ffffff;fill-opacity:1;fill-rule:evenodd;stroke:none"
       d="m 765.4014,799.9199 -148.495,-371.427 26.395,-11.085 152.929,382.512 -30.829,0 z" /><path
       inkscape:connector-curvature="0"
       id="path32"
       style="fill:#ffffff;fill-opacity:1;fill-rule:nonzero;stroke:none"
       d="m 669.2451,447.0371 c 8.163,-42.063 24.32,-117.838 75.151,-198.826 15.167,-24.167 33.438,-48.834 55.524,-73.266 l 0,-44.322 c -33.856,33.458 -60.45,67.805 -81.449,101.264 -53.822,85.753 -70.789,165.268 -79.351,209.388 l 30.125,5.762 z" /><path
       inkscape:connector-curvature="0"
       id="path36"
       style="fill:#ffffff;fill-opacity:1;fill-rule:evenodd;stroke:none"
       d="M 799.9199,595.7578 58.8849,-2e-4 l 45.674,0 695.361,559.038 0,36.72 z" /><path
       inkscape:connector-curvature="0"
       id="path40"
       style="fill:#ffffff;fill-opacity:1;fill-rule:evenodd;stroke:none"
       d="m 645.3604,0 -10e-4,799.92 -28.618,0 0,-799.92 28.619,0 z" /><path
       inkscape:connector-curvature="0"
       id="path44"
       style="fill:#ffffff;fill-opacity:1;fill-rule:evenodd;stroke:none"
       d="m 799.9199,455.9443 -799.92,-10e-4 0,-28.618 799.92,10e-4 0,28.618 z" /><path
       inkscape:connector-curvature="0"
       id="path48"
       style="fill:#ffffff;fill-opacity:1;fill-rule:evenodd;stroke:none"
       d="m 631.0508,525.999 c 46.594,0 84.364,-37.772 84.364,-84.365 0,-46.592 -37.77,-84.364 -84.364,-84.364 -46.594,0 -84.364,37.772 -84.364,84.364 0,46.593 37.77,84.365 84.364,84.365" /><path
       inkscape:connector-curvature="0"
       id="path52"
       style="fill:#c5e696;fill-opacity:1;fill-rule:evenodd;stroke:none"
       d="m 631.0508,498.4863 c 31.398,0 56.852,-25.453 56.852,-56.853 0,-31.397 -25.454,-56.85 -56.852,-56.85 -31.397,0 -56.853,25.453 -56.853,56.85 0,31.4 25.456,56.853 56.853,56.853" /><path
       inkscape:connector-curvature="0"
       id="path56"
       style="fill:#ffffff;fill-opacity:1;fill-rule:evenodd;stroke:none"
       d="m 455.1016,281.8223 16.084,23.683 -330.444,145.505 -16.085,-23.684 330.445,-145.504 z" /><path
       inkscape:connector-curvature="0"
       id="path60"
       style="fill:#ffffff;fill-opacity:1;fill-rule:evenodd;stroke:none"
       d="m 0,228.4199 162.922,70.649 -10.801,26.515 L 0,259.6179 0,228.4199 z" /><path
       inkscape:connector-curvature="0"
       id="path64"
       style="fill:#ffffff;fill-opacity:1;fill-rule:evenodd;stroke:none"
       d="m 160.1875,39.873 16.084,23.685 -176.272,111.631 0,-33.869 160.188,-101.447 z" /><path
       inkscape:connector-curvature="0"
       id="path68"
       style="fill:#ffffff;fill-opacity:1;fill-rule:evenodd;stroke:none"
       d="m 20.3223,158.0869 10.801,-26.515 167.787,82.432 -10.801,26.514 -167.787,-82.431 z" /><path
       inkscape:connector-curvature="0"
       id="path72"
       style="fill:#ffffff;fill-opacity:1;fill-rule:evenodd;stroke:none"
       d="M 0,359.375 77.56,375.838 74.543,404.309 0,388.485 0,359.375 z" /><path
       inkscape:connector-curvature="0"
       id="path76"
       style="fill:#ffffff;fill-opacity:1;fill-rule:evenodd;stroke:none"
       d="m 35.6689,256.8545 16.084,23.684 -51.753,41.606 0,-36.614 35.669,-28.676 z" /><path
       inkscape:connector-curvature="0"
       id="path80"
       style="fill:#ffffff;fill-opacity:1;fill-rule:evenodd;stroke:none"
       d="m 630.9238,574.5547 0.823,28.618 -631.747,125.897 0,-28.784 630.924,-125.731 z" /><path
       inkscape:connector-curvature="0"
       id="path84"
       style="fill:#ffffff;fill-opacity:1;fill-rule:evenodd;stroke:none"
       d="m 13.7793,459.0879 10.799,-26.516 203.777,226.39 -10.799,26.514 -203.777,-226.388 z" /><path
       inkscape:connector-curvature="0"
       id="path88"
       style="fill:#ffffff;fill-opacity:1;fill-rule:evenodd;stroke:none"
       d="m 120.5303,548.3818 20.453,25.346 -140.983,29.175 0,-29.579 120.53,-24.942 z" /><path
       inkscape:connector-curvature="0"
       id="path92"
       style="fill:#ffffff;fill-opacity:1;fill-rule:evenodd;stroke:none"
       d="m 0,708.0537 67.938,91.866 -30.409,0 L 0,749.1717 0,708.0537 z" /><path
       inkscape:connector-curvature="0"
       id="path96"
       style="fill:#ffffff;fill-opacity:1;fill-rule:evenodd;stroke:none"
       d="m 55.0938,479.6748 20.454,25.346 -75.548,16.796 0,-29.894 55.094,-12.248 z" /><path
       inkscape:connector-curvature="0"
       id="path100"
       style="fill:#ffffff;fill-opacity:1;fill-rule:evenodd;stroke:none"
       d="m 304.9639,655.3926 23.889,-13.428 142.178,157.955 -35.973,0 -130.094,-144.527 z" /><path
       inkscape:connector-curvature="0"
       id="path104"
       style="fill:#ffffff;fill-opacity:1;fill-rule:evenodd;stroke:none"
       d="m 291.1563,446.9258 24.842,-14.23 17.773,215.527 -24.842,14.231 -17.773,-215.528 z" /><path
       inkscape:connector-curvature="0"
       id="path108"
       style="fill:#ffffff;fill-opacity:1;fill-rule:evenodd;stroke:none"
       d="m 329.9229,553.042 -2.449,31.89 -200.003,-1.276 -30.272,-31.891 232.724,1.277 z" /><path
       inkscape:connector-curvature="0"
       id="path112"
       style="fill:#ffffff;fill-opacity:1;fill-rule:evenodd;stroke:none"
       d="m 637.1064,544.4502 3.54,32.375 -329.08,8.547 -3.537,-32.379 329.077,-8.543 z" /><path
       inkscape:connector-curvature="0"
       id="path116"
       style="fill:#ffffff;fill-opacity:1;fill-rule:evenodd;stroke:none"
       d="m 381.7539,435.7598 31.475,5.693 -1.084,119.901 -31.546,-9.137 1.155,-116.457 z" /><path
       inkscape:connector-curvature="0"
       id="path120"
       style="fill:#ffffff;fill-opacity:1;fill-rule:evenodd;stroke:none"
       d="m 483.1777,439.0313 31.474,5.694 -1.085,119.9 -31.544,-9.135 1.155,-116.459 z" /><path
       inkscape:connector-curvature="0"
       id="path124"
       style="fill:#ffffff;fill-opacity:1;fill-rule:evenodd;stroke:none"
       d="m 385.542,718.5137 20.454,25.345 -333.173,56.061 -19.094,0 -18.171,-22.518 349.984,-58.888 z" /><path
       inkscape:connector-curvature="0"
       id="path128"
       style="fill:#ffffff;fill-opacity:1;fill-rule:evenodd;stroke:none"
       d="m 264.0156,759.3281 30.095,-10.828 29.12,51.42 -36.275,0 -22.94,-40.592 z" /><path
       inkscape:connector-curvature="0"
       id="path132"
       style="fill:#ffffff;fill-opacity:1;fill-rule:evenodd;stroke:none"
       d="m 637.5566,148.9268 -1.223,28.604 -288.933,41.231 1.222,-28.606 288.934,-41.229 z" /><path
       inkscape:connector-curvature="0"
       id="path136"
       style="fill:#ffffff;fill-opacity:1;fill-rule:evenodd;stroke:none"
       d="m 640.8281,44.2305 -1.222,28.604 -406.717,54.317 1.224,-28.605 406.715,-54.316 z" /><path
       inkscape:connector-curvature="0"
       id="path140"
       style="fill:#ffffff;fill-opacity:1;fill-rule:evenodd;stroke:none"
       d="m 309.3535,97.9229 36.16,-10.61 112.965,101.789 -36.158,10.61 -112.967,-101.789 z" /><path
       inkscape:connector-curvature="0"
       id="path144"
       style="fill:#ffffff;fill-opacity:1;fill-rule:nonzero;stroke:none"
       d="m 0.7324,458.96 c 29.402,-14.702 82.088,-42.273 131.845,-96.944 49.706,-54.615 96.321,-136.055 113.415,-258.171 l -30.366,-4.202 c -16.073,114.8 -59.49,190.916 -105.734,241.729 -39.633,43.546 -81.467,68.675 -109.892,83.605 l 0,32.518 0.732,1.465 z" /><path
       inkscape:connector-curvature="0"
       id="path148"
       style="fill:#ffffff;fill-opacity:1;fill-rule:evenodd;stroke:none"
       d="m 193.7246,246.4248 10.802,-26.516 161.242,111.877 -10.799,26.516 -161.245,-111.877 z" /><path
       inkscape:connector-curvature="0"
       id="path152"
       style="fill:#ffffff;fill-opacity:1;fill-rule:evenodd;stroke:none"
       d="m 731.458,226.6055 29.558,-13.604 38.904,65.787 0,63.582 -68.462,-115.765 z" /><path
       inkscape:connector-curvature="0"
       id="path156"
       style="fill:#ffffff;fill-opacity:1;fill-rule:evenodd;stroke:none"
       d="m 769.6543,0 -17.249,234.616 -31.544,-3.03 17.26,-231.586 31.533,0 z" /><path
       inkscape:connector-curvature="0"
       id="path160"
       style="fill:#ffffff;fill-opacity:1;fill-rule:evenodd;stroke:none"
       d="m 755.3398,44.2305 -1.224,28.604 -122.073,-4.573 1.222,-28.605 122.075,4.574 z" /><path
       inkscape:connector-curvature="0"
       id="path164"
       style="fill:#ffffff;fill-opacity:1;fill-rule:evenodd;stroke:none"
       d="m 745.5244,206.665 -1.222,39.794 -118.802,-57.216 1.222,-39.794 118.802,57.216 z" /><path
       inkscape:connector-curvature="0"
       id="path168"
       style="fill:#ffffff;fill-opacity:1;fill-rule:evenodd;stroke:none"
       d="m 324.2979,0 26.15,90.023 -28.411,12.411 L 292.2809,0 l 32.017,0 z" /><path
       inkscape:connector-curvature="0"
       id="path172"
       style="fill:#ffffff;fill-opacity:1;fill-rule:evenodd;stroke:none"
       d="m 636.2559,279.9502 7.5,31.526 -201.674,0.06 -4.102,-31.631 198.276,0.045 z" /><path
       inkscape:connector-curvature="0"
       id="path176"
       style="fill:#ffffff;fill-opacity:1;fill-rule:evenodd;stroke:none"
       d="m 748.791,724.4199 1.648,-31.941 49.481,-3.797 0,30.834 -51.129,4.904 z" /><path
       inkscape:connector-curvature="0"
       id="path180"
       style="fill:#ffffff;fill-opacity:1;fill-rule:evenodd;stroke:none"
       d="m 696.4414,609.9082 1.649,-31.939 101.83,4.678 0,26.859 -103.479,0.402 z" /><path
       inkscape:connector-curvature="0"
       id="path184"
       style="fill:#c5e696;fill-opacity:1;fill-rule:evenodd;stroke:none"
       d="m 343.7021,192.2607 62.255,-7.292 -78.226,-70.484 -69.264,9.252 85.235,68.524 z" /><path
       inkscape:connector-curvature="0"
       id="path188"
       style="fill:#c5e696;fill-opacity:1;fill-rule:evenodd;stroke:none"
       d="m 133.0127,553.04 -87.397,-97.096 246.283,0 8.145,98.746 -167.031,-1.65 z" /><path
       inkscape:connector-curvature="0"
       id="path192"
       style="fill:#c5e696;fill-opacity:1;fill-rule:evenodd;stroke:none"
       d="m 0,322.1445 51.753,-41.606 79.004,35.782 C 114.3,336.4185 96.83,356.3115 77.56,375.8375 L 0,359.3745 l 0,-37.23 z" /><path
       inkscape:connector-curvature="0"
       id="path196"
       style="fill:#d4cbba;fill-opacity:1;fill-rule:evenodd;stroke:none"
       d="m 412.2422,550.2881 0.854,-94.344 69.914,0 -0.919,92.531 -69.849,1.813 z" /><path
       inkscape:connector-curvature="0"
       id="path200"
       style="fill:#d4cbba;fill-opacity:1;fill-rule:evenodd;stroke:none"
       d="m 796.2305,799.9199 -30.822,-77.095 34.511,-3.309 0,80.404 -3.689,0 z" /><path
       inkscape:connector-curvature="0"
       id="path204"
       style="fill:#d4cbba;fill-opacity:1;fill-rule:evenodd;stroke:none"
       d="m 195.7695,661.2725 -36.647,-40.712 -91.912,19.022 30.494,41.232 98.065,-19.542 z" /><path
       inkscape:connector-curvature="0"
       id="path208"
       style="fill:#d4cbba;fill-opacity:1;fill-rule:evenodd;stroke:none"
       d="M 0,141.3193 31.146,121.5943 0,96.5533 l 0,44.766 z" /><path
       inkscape:connector-curvature="0"
       id="path212"
       style="fill:#d4cbba;fill-opacity:1;fill-rule:evenodd;stroke:none"
       d="m 345.3135,660.2539 64.427,71.576 116.537,-22.275 -43.697,-76.655 -137.267,27.354 z" /><path
       inkscape:connector-curvature="0"
       id="path216"
       style="fill:#ffffff;fill-opacity:1;fill-rule:evenodd;stroke:none"
       d="m 20.6602,592.1504 -20.66,4.28 0,-35.178 20.66,30.898 z" /><path
       inkscape:connector-curvature="0"
       id="path220"
       style="fill:#d4cbba;fill-opacity:1;fill-rule:evenodd;stroke:none"
       d="m 616.3574,577.4561 -287.805,7.476 4.047,49.073 283.758,-56.549 z" /><path
       inkscape:connector-curvature="0"
       id="path224"
       style="fill:#d4cbba;fill-opacity:1;fill-rule:evenodd;stroke:none"
       d="m 723.5078,196.0615 -78.148,-37.637 3.31,-43.062 79.19,22.32 -4.352,58.379 z" /><g
       clip-path="url(#clipPath230)"
       id="g236"
       style="opacity:0.19999701"><g
         transform="translate(490.6758,676.7593)"
         id="g238"><path
           d="m 0,0 c 5.021,0 10.271,-1.556 11.726,-3.476 1.455,-1.92 -1.439,-3.475 -6.459,-3.475 -5.024,0 -10.272,1.555 -11.727,3.475 C -7.914,-1.556 -5.023,0 0,0 m -4.851,-13.089 2.585,0 8.848,-11.677 -0.011,0 12.387,-16.348 10.643,0 -13.047,17.22 3.098,0 13.048,-17.22 10.643,0 -13.047,17.22 0.054,0 -8.187,10.805 2.585,0 8.187,-10.805 7.069,0 -11.819,15.6 -44.248,0 11.818,-15.6 7.581,0 -8.187,10.805 z"
           style="fill:#000000;fill-opacity:1;fill-rule:nonzero;stroke:none"
           id="path240"
           inkscape:connector-curvature="0" /></g></g><g
       clip-path="url(#clipPath350)"
       id="g356"
       style="opacity:0.19999701"><g
         transform="translate(402.7305,433.6133)"
         id="g358"><path
           d="m 0,0 c 5.021,0 10.271,-1.556 11.727,-3.476 1.454,-1.92 -1.44,-3.476 -6.46,-3.476 -5.024,0 -10.272,1.556 -11.727,3.476 C -7.914,-1.556 -5.023,0 0,0 m -4.851,-13.089 2.585,0 8.848,-11.677 -0.012,0 12.388,-16.348 10.643,0 -13.048,17.22 3.099,0 13.048,-17.22 10.643,0 -13.048,17.22 0.055,0 -8.187,10.805 2.585,0 8.187,-10.805 7.069,0 -11.819,15.6 -44.249,0 11.82,-15.6 7.58,0 -8.187,10.805 z"
           style="fill:#000000;fill-opacity:1;fill-rule:nonzero;stroke:none"
           id="path360"
           inkscape:connector-curvature="0" /></g></g><path
       inkscape:connector-curvature="0"
       id="path364"
       style="fill:#427eb2;fill-opacity:1;fill-rule:nonzero;stroke:none"
       d="m 433.8809,500.0742 c 5.021,0 9.094,-4.069 9.094,-9.093 0,-5.023 -4.073,-9.095 -9.094,-9.095 -5.023,0 -9.093,4.072 -9.093,9.095 0,5.024 4.07,9.093 9.093,9.093 m -14.767,-34.245 2.585,0 0,-30.553 -0.01,0 0,-42.777 10.642,0 0,45.058 3.1,0 0,-45.058 10.642,0 0,45.058 0.055,0 0,28.272 2.585,0 0,-28.272 7.068,0 0,40.817 -44.248,0 0,-40.817 7.581,0 0,28.272 z" /><g
       clip-path="url(#clipPath370)"
       id="g376"
       style="opacity:0.19999701"><g
         transform="translate(634.8555,91.2227)"
         id="g378"><path
           d="m 0,0 c 5.023,0 10.396,-1.563 12.005,-3.493 1.608,-1.93 -1.157,-3.494 -6.181,-3.494 -5.019,0 -10.396,1.564 -12.006,3.494 C -7.79,-1.563 -5.021,0 0,0 m 38.372,-24.017 7.072,0 -22.032,15.68 -32.372,0 3.615,-15.68 7.083,0 -3.582,10.862 2.291,-0.005 4.579,-17.09 8.069,0 9.267,-11.077 10.54,0 -9.234,11.077 3.1,0 9.234,-11.077 10.664,0 -9.224,11.077 7.966,0 -24.097,16.989 2.478,-0.007 14.583,-10.749 z"
           style="fill:#000000;fill-opacity:1;fill-rule:nonzero;stroke:none"
           id="path380"
           inkscape:connector-curvature="0" /></g></g><path
       inkscape:connector-curvature="0"
       id="path384"
       style="fill:#427eb2;fill-opacity:1;fill-rule:nonzero;stroke:none"
       d="m 669.3066,157.4717 c 5.024,0 9.094,-4.069 9.094,-9.093 0,-5.023 -4.07,-9.096 -9.094,-9.096 -5.02,0 -9.092,4.073 -9.092,9.096 0,5.024 4.072,9.093 9.092,9.093 m 18.352,-62.518 7.072,0 -8.961,40.818 -32.372,0 -9.456,-40.818 7.082,0 5.473,28.273 2.288,-0.011 -9.668,-44.486 8.068,0 0.033,-28.834 10.54,0 0,28.834 3.1,0 0,-28.834 10.664,0 0.011,28.834 7.965,0 -9.935,44.223 2.473,-0.016 5.623,-27.983 z" /><g
       clip-path="url(#clipPath390)"
       id="g396"
       style="opacity:0.19999701"><g
         transform="translate(486.1035,248.79)"
         id="g398"><path
           d="m 0,0 c 5.023,0 10.396,-1.563 12.006,-3.493 1.608,-1.93 -1.157,-3.494 -6.181,-3.494 -5.02,0 -10.397,1.564 -12.006,3.494 C -7.789,-1.563 -5.021,0 0,0 m 38.373,-24.018 7.072,0 -22.032,15.681 -32.373,0 3.615,-15.681 7.083,0 -3.581,10.862 2.29,-0.004 4.58,-17.09 8.069,0 9.267,-11.077 10.539,0 -9.234,11.077 3.1,0 9.234,-11.077 10.665,0 -9.224,11.077 7.966,0 -24.098,16.989 2.478,-0.007 14.584,-10.75 z"
           style="fill:#000000;fill-opacity:1;fill-rule:nonzero;stroke:none"
           id="path400"
           inkscape:connector-curvature="0" /></g></g><path
       inkscape:connector-curvature="0"
       id="path404"
       style="fill:#427eb2;fill-opacity:1;fill-rule:nonzero;stroke:none"
       d="m 520.5557,315.0381 c 5.023,0 9.094,-4.069 9.094,-9.093 0,-5.023 -4.071,-9.095 -9.094,-9.095 -5.021,0 -9.093,4.072 -9.093,9.095 0,5.024 4.072,9.093 9.093,9.093 m 18.352,-62.517 7.071,0 -8.96,40.817 -32.372,0 -9.457,-40.817 7.083,0 5.473,28.272 2.287,-0.011 -9.667,-44.485 8.068,0 0.033,-28.834 10.539,0 0,28.834 3.1,0 0,-28.834 10.665,0 0.011,28.834 7.965,0 -9.935,44.222 2.473,-0.015 5.623,-27.983 z" /><g
       clip-path="url(#clipPath410)"
       id="g416"
       style="opacity:0.19999701"><g
         transform="translate(182.6338,539.7295)"
         id="g418"><path
           d="m 0,0 c 5.021,0 10.271,-1.556 11.726,-3.476 1.455,-1.92 -1.439,-3.475 -6.459,-3.475 -5.024,0 -10.272,1.555 -11.727,3.475 C -7.914,-1.556 -5.023,0 0,0 m -4.851,-13.089 2.585,0 8.848,-11.677 -0.011,0 12.387,-16.348 10.643,0 -13.047,17.22 3.098,0 13.048,-17.22 10.643,0 -13.047,17.22 0.054,0 -8.187,10.805 2.585,0 8.187,-10.805 7.069,0 -11.819,15.6 -44.248,0 11.818,-15.6 7.581,0 -8.187,10.805 z"
           style="fill:#000000;fill-opacity:1;fill-rule:nonzero;stroke:none"
           id="path420"
           inkscape:connector-curvature="0" /></g></g><path
       inkscape:connector-curvature="0"
       id="path424"
       style="fill:#427eb2;fill-opacity:1;fill-rule:nonzero;stroke:none"
       d="m 213.7842,606.1904 c 5.021,0 9.093,-4.069 9.093,-9.092 0,-5.024 -4.072,-9.096 -9.093,-9.096 -5.023,0 -9.093,4.072 -9.093,9.096 0,5.023 4.07,9.092 9.093,9.092 m -14.767,-34.244 2.585,0 0,-30.554 -0.01,0 0,-42.777 10.642,0 0,45.058 3.1,0 0,-45.058 10.642,0 0,45.058 0.055,0 0,28.273 2.585,0 0,-28.273 7.069,0 0,40.817 -44.249,0 0,-40.817 7.581,0 0,28.273 z" /><g
       clip-path="url(#clipPath430)"
       id="g436"
       style="opacity:0.19999701"><g
         transform="translate(77.4697,640.1543)"
         id="g438"><path
           d="m 0,0 c 5.021,0 10.272,-1.555 11.727,-3.475 1.455,-1.921 -1.439,-3.476 -6.46,-3.476 -5.023,0 -10.272,1.555 -11.727,3.476 C -7.914,-1.555 -5.022,0 0,0 m -4.85,-13.088 2.585,0 8.847,-11.677 -0.011,0 12.387,-16.349 10.644,0 -13.048,17.221 3.099,0 13.047,-17.221 10.644,0 -13.048,17.221 0.055,0 -8.188,10.805 2.585,0 8.187,-10.805 7.069,0 -11.819,15.6 -44.248,0 11.819,-15.6 7.581,0 -8.187,10.805 z"
           style="fill:#000000;fill-opacity:1;fill-rule:nonzero;stroke:none"
           id="path440"
           inkscape:connector-curvature="0" /></g></g><path
       inkscape:connector-curvature="0"
       id="path444"
       style="fill:#427eb2;fill-opacity:1;fill-rule:nonzero;stroke:none"
       d="m 108.6211,706.6162 c 5.021,0 9.093,-4.069 9.093,-9.093 0,-5.023 -4.072,-9.095 -9.093,-9.095 -5.023,0 -9.093,4.072 -9.093,9.095 0,5.024 4.07,9.093 9.093,9.093 m -14.768,-34.245 2.586,0 0,-30.554 -0.011,0 0,-42.777 10.643,0 0,45.059 3.099,0 0,-45.059 10.643,0 0,45.059 0.054,0 0,28.272 2.585,0 0,-28.272 7.069,0 0,40.817 -44.248,0 0,-40.817 7.58,0 0,28.272 z" /><g
       clip-path="url(#clipPath450)"
       id="g456"
       style="opacity:0.19999701"><g
         transform="translate(184.9541,375.2051)"
         id="g458"><path
           d="m 0,0 c 5.023,0 10.396,-1.563 12.005,-3.493 1.609,-1.93 -1.156,-3.494 -6.18,-3.494 -5.02,0 -10.397,1.564 -12.006,3.494 C -7.789,-1.563 -5.021,0 0,0 m 38.373,-24.017 7.071,0 -22.031,15.68 -32.373,0 3.615,-15.68 7.083,0 -3.581,10.862 2.29,-0.005 4.579,-17.09 8.07,0 9.266,-11.077 10.54,0 -9.234,11.077 3.1,0 9.234,-11.077 10.665,0 -9.225,11.077 7.967,0 -24.098,16.989 2.478,-0.007 14.584,-10.749 z"
           style="fill:#000000;fill-opacity:1;fill-rule:nonzero;stroke:none"
           id="path460"
           inkscape:connector-curvature="0" /></g></g><path
       inkscape:connector-curvature="0"
       id="path464"
       style="fill:#427eb2;fill-opacity:1;fill-rule:nonzero;stroke:none"
       d="m 219.4063,441.4541 c 5.023,0 9.094,-4.069 9.094,-9.093 0,-5.023 -4.071,-9.096 -9.094,-9.096 -5.021,0 -9.093,4.073 -9.093,9.096 0,5.024 4.072,9.093 9.093,9.093 m 18.352,-62.518 7.071,0 -8.96,40.818 -32.373,0 -9.456,-40.818 7.083,0 5.472,28.273 2.288,-0.011 -9.668,-44.486 8.069,0 0.032,-28.834 10.54,0 0,28.834 3.1,0 0,-28.834 10.665,0 0.01,28.834 7.966,0 -9.935,44.223 2.473,-0.016 5.623,-27.983 z" /><g
       clip-path="url(#clipPath470)"
       id="g476"
       style="opacity:0.19999701"><g
         transform="translate(729.1084,543.5459)"
         id="g478"><path
           d="m 0,0 c 5.023,0 10.396,-1.563 12.005,-3.493 1.609,-1.93 -1.156,-3.494 -6.18,-3.494 -5.02,0 -10.397,1.564 -12.006,3.494 C -7.79,-1.563 -5.021,0 0,0 m 38.372,-24.017 7.072,0 -22.032,15.68 -32.372,0 3.615,-15.68 7.083,0 -3.581,10.862 2.29,-0.005 4.579,-17.09 8.069,0 9.267,-11.077 10.54,0 -9.234,11.077 3.1,0 9.234,-11.077 10.665,0 -9.225,11.077 7.967,0 -24.098,16.989 2.478,-0.007 14.583,-10.749 z"
           style="fill:#000000;fill-opacity:1;fill-rule:nonzero;stroke:none"
           id="path480"
           inkscape:connector-curvature="0" /></g></g><path
       inkscape:connector-curvature="0"
       id="path484"
       style="fill:#427eb2;fill-opacity:1;fill-rule:nonzero;stroke:none"
       d="m 763.5605,609.7949 c 5.023,0 9.093,-4.069 9.093,-9.094 0,-5.022 -4.07,-9.095 -9.093,-9.095 -5.021,0 -9.093,4.073 -9.093,9.095 0,5.025 4.072,9.094 9.093,9.094 m 18.352,-62.518 7.071,0 -8.96,40.818 -32.373,0 -9.456,-40.818 7.083,0 5.472,28.272 2.288,-0.01 -9.668,-44.486 8.068,0 0.033,-28.834 10.54,0 0,28.834 3.1,0 0,-28.834 10.665,0 0.01,28.834 7.966,0 -9.935,44.223 2.473,-0.016 5.623,-27.983 z" /><g
       clip-path="url(#clipPath490)"
       id="g496"
       style="opacity:0.19999701"><g
         transform="translate(250.3203,636.9932)"
         id="g498"><path
           d="m 0,0 c 3.364,0 7.033,-1.043 8.197,-2.331 1.165,-1.288 -0.615,-2.332 -3.979,-2.332 -3.362,0 -7.032,1.044 -8.197,2.332 C -5.144,-1.043 -3.361,0 0,0 m 26.783,-16.027 4.736,0 -15.464,10.464 -21.675,0 3.132,-10.464 4.743,0 -2.892,7.248 1.534,-0.003 3.842,-11.406 5.403,0 6.708,-7.392 7.056,0 -6.685,7.392 2.075,0 6.685,-7.392 7.142,0 -6.68,7.392 5.334,0 -16.906,11.338 1.66,-0.004 10.252,-7.173 z"
           style="fill:#000000;fill-opacity:1;fill-rule:nonzero;stroke:none"
           id="path500"
           inkscape:connector-curvature="0" /></g></g><path
       inkscape:connector-curvature="0"
       id="path504"
       style="fill:#83b3de;fill-opacity:1;fill-rule:nonzero;stroke:none"
       d="m 275.2646,681.4414 c 3.363,0 6.088,-2.725 6.088,-6.088 0,-3.363 -2.725,-6.091 -6.088,-6.091 -3.361,0 -6.089,2.728 -6.089,6.091 0,3.363 2.728,6.088 6.089,6.088 m 12.287,-41.858 4.735,0 -6,27.328 -21.674,0 -6.332,-27.328 4.742,0 3.665,18.929 1.531,-0.008 -6.473,-29.785 5.403,0 0.021,-19.306 7.057,0 0,19.306 2.075,0 0,-19.306 7.142,0 0.007,19.306 5.333,0 -6.653,29.61 1.656,-0.011 3.765,-18.735 z" /><g
       clip-path="url(#clipPath510)"
       id="g516"
       style="opacity:0.19999701"><g
         transform="translate(256.2969,260.6855)"
         id="g518"><path
           d="m 0,0 c 3.362,0 6.87,-0.926 7.834,-2.068 0.965,-1.143 -0.98,-2.07 -4.342,-2.07 -3.363,0 -6.87,0.927 -7.834,2.07 C -5.307,-0.926 -3.363,0 0,0 m -3.313,-7.79 1.731,0 5.865,-6.95 -0.008,0 8.211,-9.732 7.127,0 -8.649,10.25 2.075,0 8.649,-10.25 7.126,0 -8.649,10.25 0.036,0 -5.427,6.432 1.731,0 5.427,-6.432 4.733,0 -7.835,9.285 -29.627,0 7.835,-9.285 5.076,0 -5.427,6.432 z"
           style="fill:#000000;fill-opacity:1;fill-rule:nonzero;stroke:none"
           id="path520"
           inkscape:connector-curvature="0" /></g></g><path
       inkscape:connector-curvature="0"
       id="path524"
       style="fill:#83b3de;fill-opacity:1;fill-rule:nonzero;stroke:none"
       d="m 276.9473,308.2422 c 3.361,0 6.089,-2.725 6.089,-6.089 0,-3.363 -2.728,-6.09 -6.089,-6.09 -3.363,0 -6.088,2.727 -6.088,6.09 0,3.364 2.725,6.089 6.088,6.089 m -9.887,-22.93 1.731,0 0,-20.457 -0.007,0 0,-28.641 7.126,0 0,30.169 2.075,0 0,-30.169 7.126,0 0,30.169 0.036,0 0,18.929 1.731,0 0,-18.929 4.733,0 0,27.329 -29.627,0 0,-27.329 5.076,0 0,18.929 z" /><g
       clip-path="url(#clipPath530)"
       id="g536"
       style="opacity:0.19999701"><g
         transform="translate(367.0381,715.6846)"
         id="g538"><path
           d="m 0,0 c 3.363,0 7.032,-1.043 8.196,-2.331 1.165,-1.288 -0.615,-2.332 -3.978,-2.332 -3.362,0 -7.033,1.044 -8.197,2.332 C -5.145,-1.043 -3.361,0 0,0 m 26.783,-16.027 4.736,0 -15.464,10.464 -21.676,0 3.133,-10.464 4.742,0 -2.891,7.248 1.533,-0.003 3.843,-11.406 5.403,0 6.707,-7.392 7.056,0 -6.685,7.392 2.075,0 6.686,-7.392 7.141,0 -6.679,7.392 5.333,0 -16.906,11.338 1.66,-0.004 10.253,-7.173 z"
           style="fill:#000000;fill-opacity:1;fill-rule:nonzero;stroke:none"
           id="path540"
           inkscape:connector-curvature="0" /></g></g><path
       inkscape:connector-curvature="0"
       id="path544"
       style="fill:#83b3de;fill-opacity:1;fill-rule:nonzero;stroke:none"
       d="m 391.9814,760.1328 c 3.364,0 6.089,-2.725 6.089,-6.088 0,-3.363 -2.725,-6.091 -6.089,-6.091 -3.361,0 -6.088,2.728 -6.088,6.091 0,3.363 2.727,6.088 6.088,6.088 m 12.287,-41.858 4.735,0 -5.999,27.329 -21.675,0 -6.331,-27.329 4.742,0 3.664,18.929 1.531,-0.008 -6.473,-29.785 5.403,0 0.021,-19.306 7.057,0 0,19.306 2.076,0 0,-19.306 7.141,0 0.007,19.306 5.334,0 -6.653,29.61 1.655,-0.011 3.765,-18.735 z" /><g
       clip-path="url(#clipPath550)"
       id="g556"
       style="opacity:0.19999701"><g
         transform="translate(48.7461,370.1406)"
         id="g558"><path
           d="m 0,0 c 3.361,0 6.869,-0.926 7.833,-2.068 0.965,-1.143 -0.98,-2.07 -4.342,-2.07 -3.363,0 -6.87,0.927 -7.835,2.07 C -5.308,-0.926 -3.364,0 0,0 m -3.314,-7.79 1.731,0 5.864,-6.951 -0.007,0 8.211,-9.731 7.126,0 -8.648,10.25 2.074,0 8.651,-10.25 7.125,0 -8.649,10.25 0.036,0 -5.427,6.432 1.731,0 5.427,-6.432 4.733,0 -7.835,9.285 -29.627,0 7.835,-9.285 5.076,0 -5.427,6.432 z"
           style="fill:#000000;fill-opacity:1;fill-rule:nonzero;stroke:none"
           id="path560"
           inkscape:connector-curvature="0" /></g></g><path
       inkscape:connector-curvature="0"
       id="path564"
       style="fill:#83b3de;fill-opacity:1;fill-rule:nonzero;stroke:none"
       d="m 69.3955,417.6973 c 3.361,0 6.089,-2.725 6.089,-6.089 0,-3.363 -2.728,-6.09 -6.089,-6.09 -3.363,0 -6.088,2.727 -6.088,6.09 0,3.364 2.725,6.089 6.088,6.089 m -9.887,-22.93 1.731,0 0,-20.457 -0.007,0 0,-28.641 7.126,0 0,30.169 2.075,0 0,-30.169 7.126,0 0,30.169 0.036,0 0,18.929 1.731,0 0,-18.929 4.733,0 0,27.329 -29.627,0 0,-27.329 5.076,0 0,18.929 z" /><g
       clip-path="url(#clipPath570)"
       id="g576"
       style="opacity:0.19999701"><g
         transform="translate(721.2061,365.3057)"
         id="g578"><path
           d="m 0,0 c 3.362,0 6.784,-1.029 7.643,-2.299 0.858,-1.27 -1.173,-2.3 -4.535,-2.3 -3.363,0 -6.784,1.03 -7.642,2.3 C -5.393,-1.029 -3.363,0 0,0 m -4.034,-8.657 1.73,0 5.221,-7.725 -0.007,0 7.311,-10.813 7.126,0 -7.701,11.39 2.076,0 7.7,-11.39 7.126,0 -7.7,11.39 0.036,0 -4.831,7.148 1.73,0 4.831,-7.148 4.734,0 -6.976,10.319 -29.626,0 6.975,-10.319 5.076,0 -4.831,7.148 z"
           style="fill:#000000;fill-opacity:1;fill-rule:nonzero;stroke:none"
           id="path580"
           inkscape:connector-curvature="0" /></g></g><path
       inkscape:connector-curvature="0"
       id="path584"
       style="fill:#83b3de;fill-opacity:1;fill-rule:nonzero;stroke:none"
       d="m 739.5898,410.1377 c 3.362,0 6.089,-2.725 6.089,-6.088 0,-3.363 -2.727,-6.09 -6.089,-6.09 -3.363,0 -6.088,2.727 -6.088,6.09 0,3.363 2.725,6.088 6.088,6.088 m -9.887,-22.929 1.731,0 0,-20.457 -0.007,0 0,-28.641 7.126,0 0,30.169 2.075,0 0,-30.169 7.126,0 0,30.169 0.036,0 0,18.929 1.732,0 0,-18.929 4.732,0 0,27.329 -29.627,0 0,-27.329 5.076,0 0,18.929 z" /><g
       clip-path="url(#clipPath590)"
       id="g596"
       style="opacity:0.19999701"><g
         transform="translate(670.7988,580.9775)"
         id="g598"><path
           d="m 0,0 c 5.024,0 10.397,-1.563 12.006,-3.493 1.609,-1.93 -1.156,-3.494 -6.18,-3.494 -5.02,0 -10.397,1.564 -12.006,3.494 C -7.789,-1.563 -5.02,0 0,0 m 38.373,-24.017 7.072,0 -22.032,15.68 -32.372,0 3.615,-15.68 7.082,0 -3.58,10.861 2.29,-0.004 4.579,-17.09 8.069,0 9.267,-11.077 10.54,0 -9.234,11.077 3.1,0 9.234,-11.077 10.665,0 -9.225,11.077 7.967,0 -24.098,16.989 2.478,-0.007 14.583,-10.749 z"
           style="fill:#000000;fill-opacity:1;fill-rule:nonzero;stroke:none"
           id="path600"
           inkscape:connector-curvature="0" /></g></g><path
       inkscape:connector-curvature="0"
       id="path604"
       style="fill:#427eb2;fill-opacity:1;fill-rule:nonzero;stroke:none"
       d="m 705.252,647.2266 c 5.023,0 9.093,-4.07 9.093,-9.094 0,-5.023 -4.07,-9.095 -9.093,-9.095 -5.021,0 -9.093,4.072 -9.093,9.095 0,5.024 4.072,9.094 9.093,9.094 m 18.352,-62.518 7.071,0 -8.96,40.818 -32.373,0 -9.456,-40.818 7.083,0 5.472,28.272 2.288,-0.01 -9.668,-44.486 8.068,0 0.033,-28.834 10.54,0 0,28.834 3.1,0 0,-28.834 10.665,0 0.01,28.834 7.966,0 -9.935,44.223 2.473,-0.016 5.623,-27.983 z" /><g
       clip-path="url(#clipPath610)"
       id="g616"
       style="opacity:0.19999701"><g
         transform="translate(347.2441,398.7354)"
         id="g618"><path
           d="m 0,0 c 5.021,0 10.271,-1.556 11.726,-3.475 1.454,-1.921 -1.439,-3.476 -6.459,-3.476 -5.024,0 -10.273,1.555 -11.728,3.476 C -7.915,-1.556 -5.023,0 0,0 m -4.851,-13.088 2.585,0 8.848,-11.678 -0.012,0 12.387,-16.348 10.644,0 -13.048,17.22 3.099,0 13.047,-17.22 10.644,0 -13.048,17.22 0.055,0 -8.188,10.806 2.585,0 8.187,-10.806 7.069,0 -11.819,15.6 -44.248,0 11.819,-15.6 7.581,0 -8.187,10.806 z"
           style="fill:#000000;fill-opacity:1;fill-rule:nonzero;stroke:none"
           id="path620"
           inkscape:connector-curvature="0" /></g></g><path
       inkscape:connector-curvature="0"
       id="path624"
       style="fill:#427eb2;fill-opacity:1;fill-rule:nonzero;stroke:none"
       d="m 378.3945,465.1973 c 5.021,0 9.093,-4.069 9.093,-9.093 0,-5.023 -4.072,-9.096 -9.093,-9.096 -5.023,0 -9.093,4.073 -9.093,9.096 0,5.024 4.07,9.093 9.093,9.093 m -14.767,-34.245 2.585,0 0,-30.554 -0.011,0 0,-42.777 10.643,0 0,45.058 3.099,0 0,-45.058 10.643,0 0,45.058 0.054,0 0,28.273 2.585,0 0,-28.273 7.069,0 0,40.818 -44.248,0 0,-40.818 7.581,0 0,28.273 z" /><g
       clip-path="url(#clipPath630)"
       id="g636"
       style="opacity:0.19999701"><g
         transform="translate(39.1494,684.4102)"
         id="g638"><path
           d="m 0,0 c 3.361,0 6.869,-0.926 7.833,-2.068 0.965,-1.143 -0.98,-2.07 -4.342,-2.07 -3.363,0 -6.87,0.927 -7.834,2.07 C -5.308,-0.926 -3.363,0 0,0 m -3.313,-7.79 1.73,0 5.865,-6.951 -0.008,0 8.212,-9.731 7.126,0 -8.649,10.25 2.075,0 8.65,-10.25 7.125,0 -8.649,10.25 0.036,0 -5.427,6.432 1.731,0 5.427,-6.432 4.733,0 -7.835,9.285 -29.627,0 7.835,-9.285 5.076,0 -5.426,6.432 z"
           style="fill:#000000;fill-opacity:1;fill-rule:nonzero;stroke:none"
           id="path640"
           inkscape:connector-curvature="0" /></g></g><path
       inkscape:connector-curvature="0"
       id="path644"
       style="fill:#83b3de;fill-opacity:1;fill-rule:nonzero;stroke:none"
       d="m 59.7988,731.9668 c 3.362,0 6.089,-2.725 6.089,-6.089 0,-3.363 -2.727,-6.09 -6.089,-6.09 -3.363,0 -6.088,2.727 -6.088,6.09 0,3.364 2.725,6.089 6.088,6.089 m -9.887,-22.93 1.731,0 0,-20.457 -0.007,0 0,-28.641 7.126,0 0,30.169 2.075,0 0,-30.169 7.126,0 0,30.169 0.036,0 0,18.929 1.731,0 0,-18.929 4.733,0 0,27.329 -29.627,0 0,-27.329 5.076,0 0,18.929 z" /><g
       clip-path="url(#clipPath650)"
       id="g656"
       style="opacity:0.19999701"><g
         transform="translate(539.7061,677.0156)"
         id="g658"><path
           d="m 0,0 c 5.024,0 10.397,-1.563 12.006,-3.493 1.609,-1.93 -1.156,-3.494 -6.18,-3.494 -5.02,0 -10.397,1.564 -12.006,3.494 C -7.789,-1.563 -5.02,0 0,0 m 38.373,-24.017 7.072,0 -22.032,15.68 -32.372,0 3.615,-15.68 7.082,0 -3.58,10.861 2.29,-0.004 4.579,-17.09 8.069,0 9.267,-11.077 10.54,0 -9.234,11.077 3.1,0 9.234,-11.077 10.665,0 -9.225,11.077 7.967,0 -24.098,16.989 2.478,-0.007 14.583,-10.749 z"
           style="fill:#000000;fill-opacity:1;fill-rule:nonzero;stroke:none"
           id="path660"
           inkscape:connector-curvature="0" /></g></g><g
       clip-path="url(#clipPath666)"
       id="g672"
       style="opacity:0.19999701"><g
         transform="translate(147.4463,206.2119)"
         id="g674"><path
           d="m 0,0 c 5.023,0 10.396,-1.563 12.006,-3.493 1.608,-1.93 -1.157,-3.494 -6.181,-3.494 -5.02,0 -10.396,1.564 -12.006,3.494 C -7.789,-1.563 -5.021,0 0,0 m 38.373,-24.017 7.072,0 -22.032,15.68 -32.373,0 3.615,-15.68 7.083,0 -3.581,10.862 2.291,-0.005 4.579,-17.09 8.069,0 9.267,-11.077 10.539,0 -9.234,11.077 3.1,0 9.234,-11.077 10.665,0 -9.224,11.077 7.966,0 -24.097,16.989 2.477,-0.006 14.584,-10.75 z"
           style="fill:#000000;fill-opacity:1;fill-rule:nonzero;stroke:none"
           id="path676"
           inkscape:connector-curvature="0" /></g></g><path
       inkscape:connector-curvature="0"
       id="path680"
       style="fill:#427eb2;fill-opacity:1;fill-rule:nonzero;stroke:none"
       d="m 181.8984,272.4609 c 5.023,0 9.094,-4.069 9.094,-9.093 0,-5.023 -4.071,-9.096 -9.094,-9.096 -5.021,0 -9.093,4.073 -9.093,9.096 0,5.024 4.072,9.093 9.093,9.093 m 18.352,-62.518 7.072,0 -8.961,40.818 -32.372,0 -9.457,-40.818 7.083,0 5.473,28.273 2.287,-0.011 -9.667,-44.486 8.068,0 0.033,-28.834 10.539,0 0,28.834 3.1,0 0,-28.834 10.665,0 0.011,28.834 7.965,0 -9.935,44.223 2.473,-0.016 5.623,-27.983 z" /><g
       clip-path="url(#clipPath686)"
       id="g692"
       style="opacity:0.19999701"><g
         transform="translate(36.4043,72.3818)"
         id="g694"><path
           d="m 0,0 c 3.361,0 6.869,-0.926 7.834,-2.068 0.964,-1.143 -0.98,-2.07 -4.343,-2.07 -3.363,0 -6.87,0.927 -7.834,2.07 C -5.307,-0.926 -3.363,0 0,0 m -3.313,-7.79 1.73,0 5.865,-6.951 -0.008,0 8.212,-9.731 7.126,0 -8.649,10.25 2.075,0 8.65,-10.25 7.125,0 -8.649,10.25 0.036,0 -5.427,6.432 1.731,0 5.428,-6.432 4.732,0 -7.835,9.285 -29.627,0 7.835,-9.285 5.076,0 -5.426,6.432 z"
           style="fill:#000000;fill-opacity:1;fill-rule:nonzero;stroke:none"
           id="path696"
           inkscape:connector-curvature="0" /></g></g><path
       inkscape:connector-curvature="0"
       id="path700"
       style="fill:#83b3de;fill-opacity:1;fill-rule:nonzero;stroke:none"
       d="m 57.0547,119.9385 c 3.361,0 6.088,-2.726 6.088,-6.089 0,-3.363 -2.727,-6.09 -6.088,-6.09 -3.364,0 -6.089,2.727 -6.089,6.09 0,3.363 2.725,6.089 6.089,6.089 m -9.888,-22.93 1.731,0 0,-20.457 -0.007,0 0,-28.641 7.126,0 0,30.169 2.075,0 0,-30.169 7.126,0 0,30.169 0.036,0 0,18.929 1.731,0 0,-18.929 4.733,0 0,27.329 -29.627,0 0,-27.329 5.076,0 0,18.929 z" /><g
       clip-path="url(#clipPath706)"
       id="g712"
       style="opacity:0.19999701"><g
         transform="translate(437.377,135.0645)"
         id="g714"><path
           d="m 0,0 c 3.361,0 6.87,-0.926 7.834,-2.068 0.965,-1.143 -0.98,-2.07 -4.342,-2.07 -3.364,0 -6.87,0.927 -7.835,2.07 C -5.307,-0.926 -3.363,0 0,0 m -3.313,-7.79 1.731,0 5.864,-6.951 -0.007,0 8.211,-9.731 7.126,0 -8.649,10.25 2.075,0 8.65,-10.25 7.126,0 -8.65,10.25 0.037,0 -5.428,6.432 1.732,0 5.427,-6.432 4.732,0 -7.834,9.285 -29.627,0 7.835,-9.285 5.076,0 -5.427,6.432 z"
           style="fill:#000000;fill-opacity:1;fill-rule:nonzero;stroke:none"
           id="path716"
           inkscape:connector-curvature="0" /></g></g><path
       inkscape:connector-curvature="0"
       id="path720"
       style="fill:#83b3de;fill-opacity:1;fill-rule:nonzero;stroke:none"
       d="m 465.1533,182.6201 c 3.361,0 6.089,-2.725 6.089,-6.088 0,-3.363 -2.728,-6.09 -6.089,-6.09 -3.363,0 -6.089,2.727 -6.089,6.09 0,3.363 2.726,6.088 6.089,6.088 m -9.887,-22.929 1.731,0 0,-20.457 -0.007,0 0,-28.641 7.125,0 0,30.169 2.076,0 0,-30.169 7.126,0 0,30.169 0.036,0 0,18.929 1.731,0 0,-18.929 4.733,0 0,27.329 -29.627,0 0,-27.329 5.076,0 0,18.929 z" /><g
       clip-path="url(#clipPath726)"
       id="g732"
       style="opacity:0.19999701"><g
         transform="translate(527.7715,548.4814)"
         id="g734"><path
           d="m 0,0 c 3.362,0 6.834,-1.003 7.752,-2.241 0.92,-1.238 -1.063,-2.242 -4.424,-2.242 -3.363,0 -6.833,1.004 -7.752,2.242 C -5.343,-1.003 -3.363,0 0,0 m -3.621,-8.441 1.73,0 5.591,-7.533 -0.008,0 7.828,-10.545 7.126,0 -8.245,11.108 2.076,0 8.244,-11.108 7.126,0 -8.244,11.108 0.036,0 -5.173,6.97 1.731,0 5.172,-6.97 4.734,0 -7.468,10.062 -29.627,0 7.468,-10.062 5.076,0 -5.173,6.97 z"
           style="fill:#000000;fill-opacity:1;fill-rule:nonzero;stroke:none"
           id="path736"
           inkscape:connector-curvature="0" /></g></g><path
       inkscape:connector-curvature="0"
       id="path740"
       style="fill:#83b3de;fill-opacity:1;fill-rule:nonzero;stroke:none"
       d="m 547.4551,593.9912 c 3.361,0 6.088,-2.725 6.088,-6.088 0,-3.364 -2.727,-6.091 -6.088,-6.091 -3.363,0 -6.089,2.727 -6.089,6.091 0,3.363 2.726,6.088 6.089,6.088 m -9.888,-22.93 1.732,0 0,-20.457 -0.008,0 0,-28.641 7.126,0 0,30.17 2.075,0 0,-30.17 7.126,0 0,30.17 0.036,0 0,18.928 1.731,0 0,-18.928 4.734,0 0,27.328 -29.627,0 0,-27.328 5.075,0 0,18.928 z" /><g
       clip-path="url(#clipPath746)"
       id="g752"
       style="opacity:0.19999701"><g
         transform="translate(402.8535,157.7217)"
         id="g754"><path
           d="m 0,0 c 3.363,0 7.032,-1.044 8.197,-2.331 1.164,-1.288 -0.616,-2.332 -3.98,-2.332 -3.362,0 -7.031,1.044 -8.197,2.332 C -5.145,-1.044 -3.361,0 0,0 m 26.783,-16.028 4.735,0 -15.463,10.465 -21.676,0 3.133,-10.465 4.742,0 -2.891,7.248 1.533,-0.002 3.842,-11.406 5.403,0 6.709,-7.392 7.056,0 -6.685,7.392 2.074,0 6.686,-7.392 7.141,0 -6.679,7.392 5.334,0 -16.906,11.338 1.659,-0.004 10.253,-7.174 z"
           style="fill:#000000;fill-opacity:1;fill-rule:nonzero;stroke:none"
           id="path756"
           inkscape:connector-curvature="0" /></g></g><path
       inkscape:connector-curvature="0"
       id="path760"
       style="fill:#83b3de;fill-opacity:1;fill-rule:nonzero;stroke:none"
       d="m 427.7969,202.1699 c 3.363,0 6.089,-2.725 6.089,-6.089 0,-3.363 -2.726,-6.09 -6.089,-6.09 -3.361,0 -6.088,2.727 -6.088,6.09 0,3.364 2.727,6.089 6.088,6.089 m 12.287,-41.858 4.735,0 -5.999,27.328 -21.675,0 -6.331,-27.328 4.741,0 3.665,18.928 1.531,-0.007 -6.473,-29.785 5.403,0 0.022,-19.306 7.057,0 0,19.306 2.075,0 0,-19.306 7.141,0 0.007,19.306 5.334,0 -6.653,29.61 1.656,-0.011 3.764,-18.735 z" /><g
       clip-path="url(#clipPath766)"
       id="g772"
       style="opacity:0.19999701"><g
         transform="translate(95.0166,188.0957)"
         id="g774"><path
           d="m 0,0 c 5.021,0 10.271,-1.556 11.727,-3.475 1.454,-1.921 -1.439,-3.476 -6.46,-3.476 -5.023,0 -10.272,1.555 -11.727,3.476 C -7.914,-1.556 -5.023,0 0,0 m -4.851,-13.088 2.586,0 8.847,-11.678 -0.011,0 12.387,-16.348 10.643,0 -13.047,17.22 3.099,0 13.047,-17.22 10.644,0 -13.048,17.22 0.054,0 -8.187,10.806 2.585,0 8.187,-10.806 7.069,0 -11.819,15.6 -44.248,0 11.819,-15.6 7.581,0 -8.188,10.806 z"
           style="fill:#000000;fill-opacity:1;fill-rule:nonzero;stroke:none"
           id="path776"
           inkscape:connector-curvature="0" /></g></g><path
       inkscape:connector-curvature="0"
       id="path780"
       style="fill:#427eb2;fill-opacity:1;fill-rule:nonzero;stroke:none"
       d="m 126.167,254.5576 c 5.021,0 9.094,-4.069 9.094,-9.093 0,-5.023 -4.073,-9.096 -9.094,-9.096 -5.022,0 -9.093,4.073 -9.093,9.096 0,5.024 4.071,9.093 9.093,9.093 m -14.767,-34.245 2.585,0 0,-30.554 -0.01,0 0,-42.777 10.642,0 0,45.058 3.1,0 0,-45.058 10.643,0 0,45.058 0.054,0 0,28.273 2.585,0 0,-28.273 7.069,0 0,40.818 -44.248,0 0,-40.818 7.58,0 0,28.273 z" /><path
       inkscape:connector-curvature="0"
       id="path784"
       style="fill:#427eb2;fill-opacity:1;fill-rule:nonzero;stroke:none"
       d="m 573.6484,748.3691 c 5.265,0 9.529,-4.265 9.529,-9.529 0,-5.265 -4.264,-9.534 -9.529,-9.534 -5.262,0 -9.529,4.269 -9.529,9.534 0,5.264 4.267,9.529 9.529,9.529 m 19.232,-65.519 7.412,0 -9.391,42.777 -33.927,0 -9.91,-42.777 7.423,0 5.736,29.629 2.397,-0.01 -10.132,-46.621 8.456,0 0.034,-30.218 11.046,0 0,30.218 3.248,0 0,-30.218 11.177,0 0.012,30.218 8.347,0 -10.412,46.345 2.592,-0.017 5.892,-29.326 z" /><path
       inkscape:connector-curvature="0"
       id="path788"
       style="fill:#427eb2;fill-opacity:1;fill-rule:nonzero;stroke:none"
       d="m 521.2285,748.3691 c 5.262,0 9.529,-4.265 9.529,-9.529 0,-5.265 -4.267,-9.534 -9.529,-9.534 -5.265,0 -9.529,4.269 -9.529,9.534 0,5.264 4.264,9.529 9.529,9.529 m -15.476,-35.89 2.708,0 0,-32.019 -0.01,0 0,-44.83 11.153,0 0,47.22 3.248,0 0,-47.22 11.154,0 0,47.22 0.057,0 0,29.629 2.709,0 0,-29.629 7.408,0 0,42.777 -46.372,0 0,-42.777 7.945,0 0,29.629 z" /></g></svg>